<?xml version="1.0" encoding="UTF-8" standalone="no"?>
<!-- Created with Inkscape (http://www.inkscape.org/) -->

<svg
   width="32"
   height="32"
   viewBox="0 0 16 16"
   version="1.1"
   id="svg1"
   xml:space="preserve"
   xmlns="http://www.w3.org/2000/svg"
   xmlns:svg="http://www.w3.org/2000/svg"><defs
     id="defs1" /><g
     id="g21"><path
       style="opacity:1;fill:#fdf2b4;fill-opacity:1;stroke-width:1.00031;stroke-linecap:round;stroke-linejoin:round;stroke-miterlimit:16;stroke-dasharray:none;stroke-dashoffset:4.0063;paint-order:stroke fill markers"
       d="M 3.3892766,8.6958046 C 2.9700472,8.6101879 3.3934,8.4227032 3.36065,8.2916943 3.33379,8.1842589 3.2834204,8.0838836 3.2507224,7.9776149 3.178632,7.7433209 3.2980562,8.0252816 3.2036105,7.7891673 3.1831125,7.7379226 3.1501062,7.6879976 3.1407946,7.6321276 3.1259763,7.5432169 3.1219733,7.4500323 3.0936827,7.3651603 c -0.00497,-0.014897 0.00341,-0.031783 0,-0.047112 -0.020462,-0.09208 -0.060284,-0.175786 -0.07852,-0.2669674 -0.0091,-0.045478 -0.05591,-0.1137106 -0.062816,-0.1413356 -0.00381,-0.015237 0.00583,-0.03253 0,-0.047112 -0.07407,-0.1851754 0.00789,0.1414686 -0.047112,-0.07852 -0.00858,-0.034322 0.00692,-0.075319 0,-0.109928 -0.00833,-0.041664 -0.027661,-0.1024337 -0.047112,-0.1413357 -0.00331,-0.00662 -0.013363,-0.00868 -0.015704,-0.015703 -0.00662,-0.019863 0.00344,-0.042162 0,-0.062816 C 2.8336049,6.4014519 2.8055367,6.3641479 2.795306,6.3129946 2.7838882,6.2559053 2.7860264,6.1980696 2.779602,6.1402509 2.7730515,6.0812959 2.7483431,6.0229926 2.7324901,5.9675073 2.6920917,5.8261126 2.7295032,5.9436113 2.7167862,5.8418756 2.7062281,5.7574106 2.6636401,5.6679699 2.6539703,5.5906119 c 0,-0.1709066 0.00828,-0.00573 -0.015704,-0.1256316 -0.00807,-0.040367 0.00583,-0.084802 0,-0.1256317 -0.00804,-0.056294 -0.020613,-0.1030663 -0.031408,-0.1570397 -0.00503,-0.025167 0.00503,-0.053353 0,-0.07852 -0.0023,-0.011477 -0.01378,-0.019863 -0.015704,-0.031407 -0.00344,-0.020653 0.00231,-0.042005 0,-0.062816 C 2.5817573,4.924992 2.555999,4.8419993 2.5440424,4.758303 2.5160154,4.5621126 2.5126344,4.3604253 2.5126344,4.161552 c 0,-0.1039514 -0.00664,-0.1829414 -0.015704,-0.2826714 -0.012099,-0.1330886 0,-0.2744686 0,-0.408303 0,-0.070454 -0.011555,-0.1505235 0,-0.2198556 0.00742,-0.044503 0.023088,-0.084031 0.031408,-0.1256317 0.00616,-0.030798 -0.00762,-0.063754 0,-0.094224 0.0018,-0.00718 0.010469,-0.010469 0.015704,-0.015704 0.00523,-0.015704 0.012458,-0.03088 0.015704,-0.047112 0.00709,-0.03546 0.00692,-0.074803 0.015704,-0.1099278 0.031909,-0.1276344 0.1217595,-0.2422281 0.1727436,-0.3611912 0.0085,-0.019838 0.0046,-0.044309 0.015704,-0.062816 0.00602,-0.010037 0.024385,-0.00634 0.031408,-0.015704 0.019864,-0.026486 0.01533,-0.065283 0.031408,-0.094224 0.029737,-0.053527 0.068645,-0.1058815 0.094224,-0.1570396 0.00468,-0.00936 -0.00581,-0.022697 0,-0.031408 0.00821,-0.012319 0.022524,-0.019563 0.031408,-0.031408 0.014046,-0.018728 0.014855,-0.046262 0.031408,-0.062816 0.0037,-0.0037 0.013363,0.00468 0.015704,0 0.045959,-0.09192 -0.00882,-0.033887 0.031408,-0.094225 0.025612,-0.038418 0.1554235,-0.2240127 0.1727436,-0.2355595 0.040142,-0.026761 0.083601,-0.017397 0.1256318,-0.031408 0.017905,-0.00597 0.030231,-0.022967 0.047112,-0.031408 0.1189804,-0.05949 0.216192,-0.062816 0.3454874,-0.062816 0.049549,0 0.2155766,-0.017843 0.2512636,0 0.02768,0.01384 0.0541,0.034902 0.07852,0.047112 0.065356,0.032678 -0.016787,-0.00108 0.015703,0.031408 0.0074,0.0074 0.024007,-0.0074 0.031407,0 0.00828,0.00828 0.00743,0.023131 0.015703,0.031408 0.05809,0.058091 0.1399897,0.084353 0.1884474,0.1570397 0.036191,0.054286 0.033247,0.07685 0.094224,0.1256317 0.00409,0.00327 0.012003,-0.0037 0.015703,0 0.01613,0.016129 0.02613,0.07324 0.047112,0.094224 0.0037,0.0037 0.012003,-0.0037 0.015703,0 0.040254,0.00441 0.00577,0.033869 0.015703,0.047112 0.066832,0.089109 0.032357,0.00166 0.094224,0.1099278 0.00821,0.014372 0.00719,0.032917 0.015703,0.047112 0.00762,0.012696 0.01909,0.023195 0.031407,0.031408 0.00436,0.0029 0.013363,-0.00468 0.015703,0 0.00468,0.00936 -0.00425,0.021841 0,0.031408 0.1409116,0.3170508 0.00502,0.036427 0.094224,0.1256317 0.01317,0.01317 0.00653,0.049052 0.015703,0.062816 0.00821,0.012319 0.022523,0.019563 0.031407,0.031408 0.047025,0.062699 0.075749,0.1514969 0.109928,0.2198555 0.00662,0.013243 0.024787,0.018165 0.031407,0.031408 0.013363,0.026723 0.01876,0.068929 0.031407,0.094224 0.044182,0.088364 0.1064143,0.1668878 0.1570396,0.2512635 0.011103,0.018507 0.00605,0.043511 0.015703,0.062816 0.02211,0.044221 0.058485,0.094589 0.07852,0.1413355 0.0085,0.019837 0.00769,0.042777 0.015703,0.062816 0.010223,0.025557 0.04101,0.048012 0.047112,0.07852 0.025497,0.1274813 -0.0516,-0.061135 0.031407,0.1256316 0.019017,0.042785 0.04801,0.081214 0.062816,0.1256317 0.0033,0.00993 -0.00468,0.022043 0,0.031407 0.00233,0.00468 0.013363,-0.00468 0.015703,0 0.00468,0.00936 -0.00253,0.02125 0,0.031407 0.00895,0.035797 0.051046,0.090324 0.062816,0.1256317 0.0033,0.00993 -0.0033,0.021477 0,0.031407 0.0035,0.010503 0.042404,0.102082 0.047112,0.1099276 0.026817,0.044696 0.034959,0.014203 0.047112,0.062816 0.029923,0.119691 0.080473,0.2482947 0.1256317,0.3611913 0.023807,0.059519 0.032033,0.1281377 0.047112,0.1884477 0.010793,0.043173 0.02689,0.1008893 0.047112,0.1413357 0.00844,0.01688 0.02544,0.029207 0.031407,0.047112 0.026173,0.07852 -0.01745,0.01745 0,0.07852 0.022283,0.077995 0.062609,0.1560053 0.07852,0.2355597 0.02257,0.1128566 0.059706,0.2293393 0.109928,0.3297833 0.023503,0.047004 0.0117,0.09207 0.031407,0.1413357 0.0055,0.013747 0.026727,0.017363 0.031407,0.031407 0.0033,0.00993 0,0.02094 0,0.031407 0.00523,0.015703 0.00956,0.031743 0.015703,0.047112 0.00701,0.017523 0.027707,0.028603 0.031407,0.047112 0.00411,0.020533 -0.00778,0.043375 0,0.062816 0.00435,0.010867 0.025387,0.00567 0.031407,0.015703 0.011103,0.018507 0.00888,0.04234 0.015703,0.062816 0.01575,0.04725 0.053009,0.092299 0.062816,0.1413357 0.00307,0.0154 -0.00551,0.032407 0,0.047112 0.010717,0.02858 0.035776,0.05018 0.047112,0.07852 0.00991,0.024783 0.00633,0.053528 0.015703,0.07852 0.00663,0.017673 0.022967,0.03023 0.031407,0.047112 0.02807,0.056143 0.031407,0.1214453 0.031407,0.1884477 0,0.01741 0.00753,0.047759 0,0.062816 -0.0033,0.00662 -0.012393,0.00908 -0.015703,0.015703 -0.010173,0.020347 0.012443,0.059854 0,0.07852 -0.01232,0.01848 -0.03718,0.027247 -0.047112,0.047112 -0.01934,0.038678 0.045584,-0.014177 -0.015703,0.047112 -0.00828,0.00828 -0.02313,0.00743 -0.031407,0.015703 -0.026707,0.026707 -0.038101,0.053805 -0.062816,0.07852 -0.018603,0.018603 -0.057334,0.031223 -0.07852,0.047112 -0.097123,0.072842 -0.00948,0.00327 -0.031407,0.047112 -0.032677,0.065356 0.0011,-0.016787 -0.031407,0.015703 -0.022877,0.022877 -0.050458,0.085211 -0.062816,0.1099276 -0.01526,0.030517 -0.091344,0.121024 -0.094224,0.125632 -0.030847,0.049355 -0.00273,0.022553 -0.031407,0.094224 -0.02316,0.057896 -0.065206,0.1061743 -0.07852,0.1727437 -0.00411,0.020533 0.00508,0.042502 0,0.062816 -0.043762,0.1750466 -0.047112,0.349451 -0.047112,0.5339346 0,0.112718 0.01936,0.2402907 -0.015703,0.3454873 -0.0066,0.019787 -0.01474,0.2188917 -0.015703,0.2198557 -0.0213,0.0213 -0.2787534,-0.01701 -0.3297834,0 -0.1198113,0.039937 -0.2731033,0.01417 -0.3925993,-0.015703 -0.024633,-0.00616 -0.053886,0.00616 -0.07852,0 -0.056626,-0.014157 -0.1138594,-0.021593 -0.1727437,-0.031407 -0.032657,-0.00544 -0.061567,-0.025967 -0.094224,-0.031407 -0.1017823,-0.016963 -0.21165,0.012803 -0.3140793,0 C 4.1299786,8.5704142 3.991331,8.5743609 3.83175,8.5743609 c -0.093104,0 -0.206713,-0.01485 -0.2983754,0.015703 -0.04777,0.015923 -0.1317213,0.095834 -0.1441156,0.105735 z"
       id="path16" /><path
       style="opacity:1;fill:#fceb8f;fill-opacity:1;stroke-width:1.00031;stroke-linecap:round;stroke-linejoin:round;stroke-miterlimit:16;stroke-dasharray:none;stroke-dashoffset:4.0063;paint-order:stroke fill markers"
       d="m 5.6718483,8.7429882 c -0.1518187,0.02924 -0.2071777,0.2359867 -0.3167957,0.3182004 -0.00936,0.00702 -0.02313,0.00743 -0.031407,0.015703 -0.00253,0.00253 -0.02888,0.044585 -0.031407,0.047112 -0.013347,0.013347 -0.036643,0.015703 -0.047112,0.031407 -0.00581,0.00871 0.00628,0.023033 0,0.031407 -0.1449714,0.096648 -0.021177,-0.00475 -0.047112,0.047112 -0.00828,0.01655 -0.081168,0.101224 -0.094224,0.1099277 -0.00825,0.0055 -0.041968,0.015977 -0.047112,0.031407 -0.0033,0.00993 0.00468,0.022043 0,0.031407 -0.00662,0.013243 -0.022523,0.019563 -0.031407,0.031407 -0.046227,0.061636 -0.070503,0.138444 -0.1099277,0.2041513 -0.00762,0.012697 -0.023197,0.01909 -0.031407,0.031407 -0.022903,0.034355 -0.00589,0.033375 -0.015703,0.062816 -0.011357,0.034073 -0.044839,0.064262 -0.062816,0.094224 -0.019573,0.03262 -0.01443,0.060268 -0.031407,0.094224 -0.016663,0.03333 -0.051947,0.077321 -0.062816,0.1099274 -0.021863,0.06559 -0.029317,0.152854 -0.062816,0.219856 -0.013043,0.02609 -0.036753,0.04744 -0.047112,0.07852 -0.01234,0.03702 0.00647,0.08681 0,0.125631 -0.00877,0.05262 -0.031103,0.09331 -0.047112,0.141336 -0.0047,0.01411 0.00362,0.03265 0,0.04711 -0.00872,0.03486 -0.025507,0.07451 -0.031407,0.109928 -0.00494,0.02963 0.00982,0.08048 0,0.109927 -0.00233,0.007 -0.014253,0.0084 -0.015703,0.0157 -0.01076,0.0538 0,0.133501 0,0.188447 0,0.181049 -0.013987,0.371495 0.015703,0.549639 0.00385,0.02309 0.026817,0.03986 0.031407,0.06282 0.013183,0.06592 0.016517,0.142964 0.047112,0.204152 0.022233,0.04446 0.069543,0.08747 0.07852,0.141335 0.00257,0.01549 -0.00381,0.03188 0,0.04711 0.00478,0.01911 0.035528,0.04544 0.047112,0.06282 0.033532,0.0503 0.036184,0.1024 0.047112,0.15704 0.00909,0.04545 0.049009,0.08421 0.062816,0.125632 0.00497,0.0149 -0.00307,0.03171 0,0.04711 0.01264,0.0632 0.01146,0.0072 0.031407,0.04711 0.00702,0.01405 -0.00497,0.03221 0,0.04711 0.010907,0.03272 0.037688,0.07223 0.047112,0.109928 0.023663,0.09466 0.043564,0.202119 0.062816,0.298375 0.00802,0.0401 -0.00991,0.08599 0,0.125632 0.0018,0.0072 0.01391,0.0085 0.015703,0.0157 0.00381,0.01523 -0.00381,0.03188 0,0.04711 0.00458,0.01831 0.02544,0.02921 0.031407,0.04711 0.012693,0.03808 0.00153,0.128679 0.015703,0.15704 0.011387,0.02277 0.031407,0.03284 0.031407,0.06282 0,0.139332 0.02064,0.260232 0.047112,0.392599 0.00597,0.02985 -0.013313,0.0833 0,0.109928 0.0033,0.0066 0.012393,0.0091 0.015703,0.0157 0.00693,0.01385 0.015807,0.188241 0,0.219855 -0.05486,0.10972 -0.04334,0.04334 -0.1099277,0.109928 -0.019127,0.01913 -0.00736,0.03509 -0.031407,0.04711 -0.02144,0.01072 -0.037929,0.0095 -0.062816,0.0157 -0.028423,-0.0095 -0.029207,0.02544 -0.047112,0.03141 -0.074652,0.02488 -0.364319,-0.01032 -0.439711,-0.0157 -0.031327,-0.0022 -0.066132,0.01405 -0.094224,0 -0.078262,-0.03913 -0.1730343,-0.09114 -0.2669673,-0.109928 -0.010267,-0.0021 -0.021477,0.0033 -0.031407,0 -0.00702,-0.0023 -0.01047,-0.01047 -0.015703,-0.0157 -0.01047,-0.0052 -0.020153,-0.01249 -0.031407,-0.0157 -0.030617,-0.0087 -0.065744,-0.0015 -0.094224,-0.0157 -0.046725,-0.02336 -0.084069,-0.05081 -0.1256316,-0.07852 -0.014153,-0.03118 -0.043511,-0.0061 -0.062816,-0.0157 -0.2795084,-0.139754 0.104362,0.02863 -0.1099277,-0.07852 -0.00468,-0.0023 -0.012003,0.0037 -0.015703,0 -0.00943,-0.0094 -0.01285,-0.03474 -0.031407,-0.04711 -0.049368,-0.03291 -0.094382,-0.07236 -0.1413357,-0.109928 -0.054343,-0.04347 -0.095911,-0.126475 -0.1570396,-0.157039 -0.00468,-0.0023 -0.012002,0.0037 -0.015704,0 -0.00828,-0.0083 -0.00743,-0.02313 -0.015704,-0.03141 -0.018507,-0.01851 -0.044309,-0.0286 -0.062816,-0.04711 -0.013346,-0.01335 -0.018062,-0.03377 -0.031408,-0.04711 -0.0037,-0.0037 -0.012002,0.0037 -0.015704,0 -0.024099,-0.0241 -0.043558,-0.06534 -0.062816,-0.09422 -0.016426,-0.02464 -0.044318,-0.03969 -0.062816,-0.06282 -0.00731,-0.0091 -0.00743,-0.02313 -0.015704,-0.03141 -0.0037,-0.0037 -0.012003,0.0037 -0.015704,0 -0.0037,-0.0037 0.0037,-0.012 0,-0.0157 -0.0037,-0.0037 -0.012003,0.0037 -0.015704,0 -0.026692,-0.02669 -0.036124,-0.06753 -0.062816,-0.09422 -0.0037,-0.0037 -0.012003,0.0037 -0.015704,0 -0.011283,-0.01128 -0.018915,-0.06603 -0.031408,-0.07852 -0.0037,-0.0037 -0.012003,0.0037 -0.015704,0 -0.00807,-0.0081 -0.1182651,-0.15801 -0.1256317,-0.172743 -0.00609,-0.01217 -0.00842,-0.03619 -0.015704,-0.04711 -0.00821,-0.01232 -0.023195,-0.01909 -0.031408,-0.03141 -0.00581,-0.0087 0.00468,-0.02204 0,-0.03141 -0.02974,-0.05948 -0.089727,-0.11214 -0.1099278,-0.172743 -0.00331,-0.0099 0.00331,-0.02148 0,-0.03141 -0.00425,-0.01275 -0.040455,-0.09661 -0.047112,-0.109928 -0.032068,-0.06414 -0.063738,-0.09607 -0.094224,-0.15704 -0.00965,-0.0193 -4.433e-4,-0.04755 -0.015704,-0.06282 -0.0037,-0.0037 -0.012003,0.0037 -0.015704,0 -0.00645,-0.0064 -0.073237,-0.143832 -0.07852,-0.15704 -0.00389,-0.0097 0,-0.02094 0,-0.03141 -0.010469,-0.02617 -0.019959,-0.05276 -0.031408,-0.07852 -0.018485,-0.04157 -0.053671,-0.09557 -0.062823,-0.141335 -0.0071,-0.03551 -0.00429,-0.07569 -0.015704,-0.109927 -0.00234,-0.007 -0.012393,-0.0091 -0.015704,-0.0157 -0.028961,-0.05792 -0.047584,-0.127518 -0.062816,-0.188447 -0.020001,-0.08 0,-0.346481 0,-0.439711 0,-0.167509 0,-0.335018 0,-0.502527 0,-0.05384 -0.016016,-0.203214 0,-0.251264 0.00234,-0.007 0.012393,-0.0091 0.015704,-0.0157 0.041252,-0.0825 0.057449,-0.206437 0.094224,-0.298375 0.020648,-0.05162 0.0238,-0.0292 0.062816,-0.09422 0.00808,-0.01347 -0.00381,-0.03188 0,-0.04711 0.015687,-0.062747 0.015824,-2.41e-4 0.047112,-0.062816 0.00965,-0.019303 0.00769,-0.042776 0.015704,-0.062816 0.0055,-0.013747 0.024787,-0.018167 0.031408,-0.031407 0.00702,-0.014047 -0.00702,-0.033067 0,-0.047112 0.072099,-0.144198 -0.011663,0.1076786 0.062816,-0.07852 0.00389,-0.00972 -0.00254,-0.02125 0,-0.031407 0.016957,-0.067828 0.072226,-0.1318943 0.1099277,-0.1884476 0.027443,-0.041165 0.00587,-0.027443 0.031408,-0.07852 0.012026,-0.024053 0.027985,-0.01228 0.047112,-0.031407 0.014094,-0.014093 0.017314,-0.08013 0.031408,-0.094224 0.038142,-0.038142 0.02306,0.00467 0.047112,-0.031407 0.022459,-0.033689 0.050218,-0.081626 0.07852,-0.109928 0.00828,-0.00828 0.023131,-0.00743 0.031408,-0.015703 0.045977,-0.045977 0.016839,-0.048247 0.062816,-0.094224 0.00828,-0.00828 0.023131,-0.00743 0.031408,-0.015703 0.056121,-0.056121 0.1008761,-0.132284 0.1570397,-0.1884476 0.023378,-0.023377 0.071575,-0.047717 0.094224,-0.062816 0.046099,-0.030733 0.076027,-0.1008297 0.1256317,-0.1256317 0.00936,-0.00468 0.021251,0.00253 0.031408,0 0.056562,-0.01414 0.1060507,-0.053026 0.1570397,-0.07852 0.027333,-0.013667 0.1517646,-0.00959 0.1884476,-0.015703 0.052499,-0.00875 0.103536,-0.023763 0.1570397,-0.031407 0.070972,-0.01014 0.1479313,0 0.2198553,0 0.2041517,0 0.4083034,0 0.6124547,0 0.074884,0 0.161119,-0.010633 0.2355597,0 0.016387,0.00233 0.031053,0.01169 0.047112,0.015703 0.010157,0.00253 0.022043,-0.00468 0.031407,0 0.00662,0.0033 0.00852,0.01391 0.015703,0.015703 0.126396,0.0316 -0.047426,-0.047237 0.1099277,0.015703 0.039985,0.015993 0.079759,0.053641 0.125632,0.062816 0.03513,0.00703 0.1432073,0.00586 0.1727436,0.015703 0.00702,0.00233 0.00908,0.012393 0.015703,0.015703 0.032683,0.016343 0.093938,-1.43e-4 0.125632,0.015703 0.059125,0.029563 0.023813,0.013863 0.144052,0.042991 z"
       id="path17" /><path
       style="opacity:1;fill:#fceb8f;fill-opacity:1;stroke-width:1.00031;stroke-linecap:round;stroke-linejoin:round;stroke-miterlimit:16;stroke-dasharray:none;stroke-dashoffset:4.0063;paint-order:stroke fill markers"
       d="m 7.0790429,6.2573186 c 0.216719,0.058267 0.447459,-0.00793 0.6630124,0.039972 0.094224,0.02094 0.1895503,0.037419 0.2826716,0.062816 0.00714,0.00193 0.01047,0.01047 0.015703,0.015703 0.020937,0.00523 0.041602,0.011727 0.062816,0.015703 0.172615,0.032367 0.337517,0.048049 0.502527,0.1099277 0.034446,0.012917 0.09912,0.051033 0.1256317,0.062816 0.019723,0.00877 0.047554,4.333e-4 0.062816,0.015703 0.0037,0.0037 0,0.01047 0,0.015703 0.02094,0.01047 0.040896,0.023187 0.062816,0.031407 0.052526,0.019697 0.055251,0.00543 0.094224,0.031407 0.087186,0.058124 0.129353,0.080381 0.2198554,0.125632 0.013243,0.00662 0.01909,0.023197 0.031407,0.031407 0.026723,0.017813 0.051797,0.013593 0.07852,0.031407 0.00436,0.0029 -0.0037,0.012003 0,0.015703 0.041693,0.041693 0.1080254,0.073167 0.1570397,0.1099276 0.01707,0.012803 0.028857,0.036159 0.047112,0.047112 0.03011,0.018067 0.069394,0.022283 0.094224,0.047112 0.0037,0.0037 0,0.01047 0,0.015703 0.02094,0.015703 0.040621,0.03324 0.062816,0.047112 0.01985,0.012407 0.042742,0.019363 0.062816,0.031407 0.01808,0.01085 0.0283,0.037706 0.047112,0.047112 0.00936,0.00468 0.024007,-0.0074 0.031407,0 0.00828,0.00828 0.00596,0.024917 0.015703,0.031407 0.00871,0.00581 0.022043,-0.00468 0.031407,0 0.033763,0.01688 0.067532,0.036124 0.094224,0.062816 0.0037,0.0037 -0.0037,0.012003 0,0.015703 0.00896,0.00896 0.051302,0.00803 0.062816,0.015703 0.012516,0.00834 0.1487043,0.130917 0.1570393,0.1413357 0.03604,0.045045 0.155211,0.1829616 0.172744,0.2355596 0.0033,0.00993 -0.0033,0.021477 0,0.031407 0.01619,0.04856 0.07633,0.080906 0.09422,0.125632 0.01105,0.02762 0.0059,0.083063 0.03141,0.1256317 0.03966,0.066101 0.04531,0.1184206 0.06282,0.1884476 0.0019,0.00747 0.02954,0.039641 0.03141,0.047112 0.0038,0.015237 -0.0031,0.031713 0,0.047112 0.0082,0.040896 0.02093,0.08372 0.03141,0.1256316 0.0051,0.020313 -0.0041,0.042284 0,0.062816 0.0023,0.011477 0.01287,0.020053 0.0157,0.031407 0.01018,0.040723 0,0.098954 0,0.1413357 0,0.01047 0.0074,0.024007 0,0.031407 -0.0037,0.0037 -0.012,-0.0037 -0.0157,0 -0.0083,0.00828 -0.0074,0.02313 -0.0157,0.031407 -0.01115,0.01115 -0.04432,0.028617 -0.04711,0.031407 -0.03249,0.032493 0.04965,-0.00127 -0.0157,0.031407 -0.0047,0.00233 -0.01047,0 -0.0157,0 -0.01047,0.00523 -0.02167,0.00921 -0.03141,0.015703 -0.03111,-0.00157 -0.0074,0.02313 -0.0157,0.031407 -0.01526,0.01526 -0.04351,0.00605 -0.06282,0.015703 -0.01324,0.00662 -0.01817,0.024787 -0.03141,0.031407 -0.01433,0.00716 -0.04872,-0.00403 -0.06282,0 -0.0271,0.00774 -0.05331,0.0188 -0.07852,0.031407 -0.0066,0.0033 -0.0085,0.01391 -0.0157,0.015703 -0.02431,0.00608 -0.09045,-0.00377 -0.109928,0.015703 -0.0037,0.0037 0.0037,0.012003 0,0.015703 -0.0034,0.00341 -0.04174,7.667e-4 -0.04711,0 -0.080154,-0.01145 -0.1680983,-0.029087 -0.2355597,-0.062816 -0.018727,-0.00936 -0.042162,0.00344 -0.062816,0 -0.03759,-0.00627 -0.073285,-0.02094 -0.1099277,-0.031407 -0.069009,-0.019717 -0.116405,-0.0291 -0.1884477,-0.047112 -0.031537,0.0036 -0.051172,-0.02457 -0.07852,-0.031407 -0.010157,-0.00253 -0.021477,0.0033 -0.031407,0 -0.00702,-0.00233 -0.00868,-0.013363 -0.015703,-0.015703 -0.00993,-0.0033 -0.021477,0.0033 -0.031407,0 -0.02483,-0.00828 -0.038989,-0.036281 -0.062816,-0.047112 -0.041877,-0.015703 -0.083754,-0.031407 -0.1256317,-0.047112 -0.01047,0 -0.021477,0.0033 -0.031407,0 C 9.0142729,8.6424586 8.8706199,8.5476796 8.8256309,8.5272299 8.6982052,8.4693092 8.5672546,8.4556516 8.4330316,8.4173022 8.3719092,8.3998389 8.3082683,8.3651006 8.2445839,8.3544866 8.1234089,8.3342899 8.0388926,8.3251033 7.9148006,8.3073746 7.8282666,8.2950113 7.7523943,8.2759679 7.6635373,8.2759679 c -0.2215714,0 -0.4467877,-0.011147 -0.6595667,0.031407 -0.031537,-0.0036 -0.051172,0.02457 -0.07852,0.031407 -0.086891,0.021723 -0.180227,0.033902 -0.2669676,0.062816 -0.1137504,0.037917 0.02476,-0.00453 -0.047112,0.031407 -0.014047,0.00702 -0.032213,-0.00497 -0.047112,0 -0.00702,0.00233 -0.01047,0.01047 -0.015703,0.015703 -0.015703,0.00523 -0.03088,0.012457 -0.047112,0.015703 -0.035517,0.0071 -0.076107,-0.0012 -0.1099277,0.015703 -0.031837,0.015917 -0.055778,0.0375 -0.094224,0.047112 -0.010157,0.00253 -0.021477,-0.0033 -0.031407,0 -0.00702,0.00233 -0.00868,0.013363 -0.015703,0.015703 -0.00993,0.0033 -0.021477,-0.0033 -0.031407,0 -0.00702,0.00233 -0.00868,0.013363 -0.015703,0.015703 -0.023,0.00767 -0.054979,-0.00589 -0.07852,0 -0.032713,0.00818 -0.062061,0.020687 -0.094224,0.031407 -0.035889,0.011963 -0.269919,0.00564 -0.2983754,-0.015703 -0.00499,-0.00374 -0.1228993,-0.135871 -0.1256316,-0.1413356 -0.00468,-0.00936 0.00253,-0.02125 0,-0.031407 -0.02563,-0.1025246 -0.00843,0.059332 -0.031407,-0.07852 -0.00769,-0.046144 -0.0098,-0.33178 0,-0.3611914 0.015113,-0.045343 0.035365,-0.094349 0.047112,-0.1413356 0.00253,-0.010157 -0.0033,-0.021477 0,-0.031407 0.00233,-0.00702 0.013363,-0.00868 0.015703,-0.015703 0.00497,-0.014897 -0.00702,-0.033067 0,-0.047112 0.00844,-0.01688 0.026223,-0.028963 0.031407,-0.047112 0.00575,-0.020133 -0.00411,-0.042284 0,-0.062816 0.0029,-0.01452 0.022523,-0.019563 0.031407,-0.031407 0.040867,-0.054489 0.069347,-0.118636 0.1099276,-0.1727433 0.013327,-0.017767 0.03718,-0.027247 0.047112,-0.047112 0.00702,-0.014047 -0.00808,-0.033646 0,-0.047112 0.00971,-0.016183 0.034829,-0.017077 0.047112,-0.031407 0.033629,-0.039234 0.05304,-0.096746 0.07852,-0.1413356 0.1027583,-0.179827 -0.0514,0.1006556 0.07852,-0.094224 0.00918,-0.013773 0.00652,-0.033339 0.015703,-0.047112 0.0029,-0.00436 0.012563,0.00419 0.015703,0 0.02898,-0.038642 0.058314,-0.1009247 0.07852,-0.1413357 0.010663,-0.021327 0.049194,-0.045789 0.062816,-0.062816 0.012767,-0.01596 0.02798,-0.065765 0.047112,-0.07852 0.026703,-0.0178 0.045835,-0.01315 0.062816,-0.047112 0.00468,-0.00936 -0.00628,-0.023033 0,-0.031407 0.059945,-0.079926 0.028313,0.0031 0.07852,-0.047112 0.0037,-0.0037 -0.00233,-0.011023 0,-0.015703 0.010517,-0.021037 0.139604,-0.1308743 0.1570396,-0.1413357 0.00898,-0.00539 0.022043,0.00468 0.031407,0 0.033762,-0.01688 0.067532,-0.036124 0.094224,-0.062816 0.0037,-0.0037 -0.0037,-0.012003 0,-0.015703 0.033087,-0.033087 0.200363,-0.061553 0.2512633,-0.07852 0.00702,-0.00233 0.00844,-0.014263 0.015703,-0.015703 0.034926,-0.00694 0.070988,-0.00571 0.106482,-0.00856 z"
       id="path18" /><path
       style="opacity:1;fill:#f5a800;fill-opacity:1;stroke-width:1.00031;stroke-linecap:round;stroke-linejoin:round;stroke-miterlimit:16;stroke-dasharray:none;stroke-dashoffset:4.0063;paint-order:stroke fill markers"
       d="m 5.6718483,8.7429882 c 0.035737,0.079893 0.068861,0.1610077 0.1072113,0.2396807 0.023617,0.048445 0.055729,0.092498 0.07852,0.1413357 0.021,0.045001 0.021563,0.098752 0.047112,0.1413356 0.023193,0.038655 0.064868,0.090404 0.094224,0.1256317 0.023697,0.028437 0.057988,0.047722 0.07852,0.07852 0.028007,0.042012 0.070551,0.1019593 0.1099277,0.141336 0.094957,0.094957 -0.00263,-0.055871 0.109928,0.094224 0.014047,0.018727 0.02094,0.041877 0.031407,0.062816 0.047112,0.041877 0.096764,0.08106 0.1413356,0.1256317 0.018507,0.018507 0.027007,0.04606 0.047112,0.062816 0.012717,0.010597 0.032307,0.0083 0.047112,0.015703 0.031503,0.015753 0.048966,0.058817 0.07852,0.07852 0.088397,0.05893 0.1686793,0.16209 0.2355596,0.251263 0.016687,0.02225 0.050358,0.0222 0.062816,0.04711 0.01626,0.03252 0.010973,0.05142 0.047112,0.07852 0.00936,0.007 0.024383,0.0063 0.031407,0.0157 0.00257,0.0034 0.02021,0.07105 0.031407,0.07852 0.00871,0.0058 0.022697,-0.0058 0.031407,0 0.00974,0.0065 0.00921,0.02167 0.015703,0.03141 0.00821,0.01232 0.024787,0.01817 0.031407,0.03141 0.00468,0.0094 -0.0074,0.02401 0,0.03141 0.0037,0.0037 0.012003,-0.0037 0.015703,0 0.0145,0.0145 0.050567,0.06015 0.062816,0.07852 0.019913,0.02987 0.1023577,0.08287 0.1099277,0.09422 0.00581,0.0087 -0.00581,0.0227 0,0.03141 0.164207,0.164207 0.0033,-0.01541 0.07852,0.109927 0.019043,0.03174 0.048908,0.05631 0.07852,0.07852 0.00419,0.0031 0.012003,-0.0037 0.015703,0 0.0037,0.0037 -0.0029,0.01135 0,0.0157 0.016427,0.02464 0.039127,0.04505 0.062816,0.06282 0.03316,0.02487 0.080866,0.04946 0.1099277,0.07852 0.03272,0.03272 0.070307,0.09797 0.1256316,0.125631 0.00936,0.0047 0.02243,-0.0054 0.031407,0 0.037461,0.02248 0.057936,0.07003 0.094224,0.09422 0.013067,0.0087 0.032213,-0.005 0.047112,0 0.028177,0.0094 0.053804,0.06369 0.07852,0.07852 0.039732,0.02384 0.1068446,0.02833 0.1413356,0.06282 0.0037,0.0037 -0.0037,0.012 0,0.0157 0.0037,0.0037 0.01092,-0.0021 0.015703,0 0.036902,0.0164 0.2297409,0.100814 0.2669673,0.125632 0.048314,0.03221 0.093022,0.07772 0.1413356,0.109928 0.00871,0.0058 0.022043,-0.0047 0.031407,0 0.040864,0.02043 0.050391,0.08801 0.094224,0.109927 0.080994,0.0405 0.1862433,0.150336 0.2669673,0.204152 0.013773,0.0092 0.033339,0.0065 0.047112,0.0157 0.00436,0.0029 -0.00436,0.0128 0,0.0157 0.013773,0.0092 0.032307,0.0083 0.047112,0.0157 0.0273,0.01365 0.050627,0.03471 0.07852,0.04711 0.039446,0.01753 0.084681,0.01776 0.125632,0.03141 0.01047,0.0052 0.02094,0.01047 0.031407,0.0157 0,0.0052 -0.00468,0.01336 0,0.0157 0.1104527,0.05523 0.2351137,0.08615 0.3454874,0.141336 0.026703,0.01335 0.053047,0.03437 0.07852,0.04711 0.026367,0.01318 0.1250196,0.0308 0.1413356,0.04711 0.0037,0.0037 -0.0037,0.012 0,0.0157 0.0037,0.0037 0.010937,-0.0022 0.015703,0 0.053279,0.02422 0.1064867,0.04903 0.1570397,0.07852 0.01279,0.0075 0.01871,0.02379 0.03141,0.03141 0.0482,0.02892 0.296383,0.09223 0.298375,0.09422 0.0037,0.0037 -0.005,0.01405 0,0.0157 0.03021,0.01007 0.06309,0.009 0.09422,0.0157 0.153983,0.033 0.300579,0.04874 0.455415,0.06282 0.07346,0.0067 0.132833,0.0382 0.204152,0.04711 0.08575,0.01072 0.07155,0.0029 0.15704,0.03141 0.09605,0.03202 0.214519,0.01719 0.314079,0.03141 0.128731,0.01839 0.247105,0.06827 0.376895,0.09422 0.04677,0.0094 0.07504,-0.0012 0.125632,0.0157 0.07635,0.02545 0.15574,0.03115 0.235559,0.04711 0.0906,0.01812 0.17788,0.03598 0.266968,0.04711 0.04283,0.0054 0.08273,0.02664 0.125631,0.03141 0.135464,0.01505 0.287367,0 0.424008,0 0.07388,0 0.253869,0.02007 0.314079,0 0.0453,-0.0151 0.09226,-0.0244 0.141336,-0.03141 0.06983,-0.01 0.120567,-0.01317 0.188447,-0.04711 0.0047,-0.0023 0.012,0.0037 0.0157,0 0.0037,-0.0037 -0.0042,-0.01256 0,-0.0157 0.01873,-0.01405 0.04409,-0.01736 0.06282,-0.03141 0.0042,-0.0031 -0.0037,-0.012 0,-0.0157 0.0037,-0.0037 0.012,0.0037 0.0157,0 0.01335,-0.01335 0.01806,-0.03377 0.03141,-0.04711 0.0037,-0.0037 0.012,0.0037 0.0157,0 0.01374,-0.01374 0.0099,-0.06099 0.0157,-0.07852 0.0023,-0.007 0.01239,-0.0091 0.0157,-0.0157 0.01429,-0.02858 0,-0.249007 0,-0.282671 0,-0.03589 0.01695,-0.123149 0,-0.15704 -0.0084,-0.01688 -0.0244,-0.02959 -0.03141,-0.04711 -0.0059,-0.01483 -0.0034,-0.05053 -0.0157,-0.06282 -0.03708,-0.03708 0.0083,0.08759 -0.03141,-0.03141 -0.0033,-0.0099 0.0047,-0.02204 0,-0.03141 -0.01001,-0.02002 -0.03117,-0.01866 -0.04711,-0.03141 -0.01956,-0.01565 -0.06771,-0.08096 -0.09422,-0.09422 -0.0094,-0.0047 -0.02169,0.0039 -0.03141,0 -0.04284,-0.01714 -0.08476,-0.061 -0.125632,-0.07852 -0.0721,-0.0309 -0.131137,-0.04091 -0.204152,-0.06282 -0.054,-0.0162 -0.103153,-0.04624 -0.157039,-0.06282 -0.07336,-0.02257 -0.148407,-0.03424 -0.219856,-0.06282 -0.03249,-0.013 -0.06173,-0.03412 -0.09422,-0.04711 -0.08447,-0.03379 -0.0084,-0.0012 -0.109927,-0.0157 -0.05719,-0.0082 -0.03303,-0.01625 -0.07852,-0.03141 -0.04115,-0.01372 -0.08104,-0.05167 -0.125632,-0.06282 -0.08251,-0.02063 -0.158311,-0.0713 -0.235559,-0.109928 -0.151668,-0.07583 0.02929,0.02023 -0.07852,-0.0157 -0.02569,-0.0086 -0.05309,-0.0344 -0.07852,-0.04711 -0.05585,-0.02793 -0.116032,-0.03851 -0.172744,-0.06282 -0.06504,-0.02787 -0.126355,-0.08923 -0.188447,-0.109928 -0.0099,-0.0033 -0.02148,0.0033 -0.03141,0 -0.0572,-0.01907 -0.109658,-0.08161 -0.172744,-0.09422 -0.0154,-0.0031 -0.03171,0.0031 -0.04711,0 -0.06105,-0.01221 -0.113487,-0.072 -0.172744,-0.09422 -0.02021,-0.0076 -0.04278,-0.0077 -0.06282,-0.0157 -0.06418,-0.02567 -0.136764,-0.09645 -0.204152,-0.109928 -0.0154,-0.0031 -0.03253,0.0058 -0.04711,0 -0.01375,-0.0055 -0.01817,-0.02479 -0.03141,-0.03141 -0.0094,-0.0047 -0.02204,0.0047 -0.03141,0 -0.0332,-0.0166 -0.05631,-0.04765 -0.09422,-0.06282 -0.02004,-0.008 -0.04351,-0.0061 -0.06282,-0.0157 -0.0344,-0.0172 -0.104492,-0.06931 -0.141336,-0.07852 -0.01523,-0.0038 -0.03221,0.005 -0.04711,0 -0.07509,-0.02503 -0.141178,-0.07849 -0.219855,-0.09422 -0.04985,-0.01 -0.09165,-0.01153 -0.141336,-0.03141 -0.05291,-0.02116 -0.10255,-0.06295 -0.15704,-0.07852 -0.02517,-0.0072 -0.05369,0.0083 -0.07852,0 -0.04739,-0.0158 -0.09677,-0.07194 -0.1413357,-0.09422 -0.044417,-0.02221 -0.096918,-0.0249 -0.1413357,-0.04711 -0.035838,-0.01792 -0.043262,-0.03536 -0.07852,-0.04711 -0.00993,-0.0033 -0.022697,0.0058 -0.031407,0 -0.056877,-0.03792 -0.00726,-0.04373 -0.094224,-0.07852 -0.029563,-0.01183 -0.06441,-0.0045 -0.094224,-0.0157 -0.062816,-0.02356 -0.00785,-0.02748 -0.047112,-0.04711 -0.022913,-0.01146 -0.1321627,-0.05364 -0.1413357,-0.06282 -0.0037,-0.0037 0.00413,-0.01249 0,-0.0157 -0.044694,-0.03476 -0.095544,-0.06092 -0.1413356,-0.09422 -0.011973,-0.0087 -0.018167,-0.02479 -0.031407,-0.03141 -0.014047,-0.007 -0.034045,0.0087 -0.047112,0 -0.0302,-0.02013 -0.04832,-0.05839 -0.07852,-0.07852 -0.018397,-0.01227 -0.060462,-0.01335 -0.07852,-0.03141 -0.0037,-0.0037 0.0037,-0.012004 0,-0.015704 -0.00793,-0.00793 -0.08391,-0.070785 -0.094224,-0.07852 -0.018727,-0.014047 -0.046262,-0.014853 -0.062816,-0.031407 -0.073352,-0.073352 0.083107,0.018763 -0.062816,-0.07852 -0.013773,-0.00918 -0.033869,-0.00577 -0.047112,-0.015703 -0.026337,-0.019753 -0.029083,-0.05828 -0.062816,-0.07852 -0.014193,-0.00852 -0.032917,-0.00719 -0.047112,-0.015703 C 8.5577573,9.6605256 8.5918463,9.6514146 8.5586373,9.6265066 8.5137823,9.5928656 8.2903094,9.4025689 8.275966,9.3595392 c -0.0033,-0.00993 0.00581,-0.022697 0,-0.031407 -0.0151,-0.02265 -0.063353,-0.032483 -0.07852,-0.062816 C 8.167189,9.2048032 8.098727,9.1650985 8.05611,9.1082765 8.04909,9.0989165 8.04868,9.0851465 8.040407,9.0768695 8.02706,9.0635225 8.006641,9.0588065 7.993295,9.0454625 7.981592,9.0337555 7.987525,9.0115935 7.977592,8.9983505 7.928685,8.9331415 7.966709,8.9963205 7.899072,8.9512385 c -0.0023,-0.00153 -0.041579,-0.072988 -0.047112,-0.07852 -0.0037,-0.0037 -0.01135,0.0029 -0.015703,0 -0.040647,-0.027097 -0.056679,-0.075451 -0.094224,-0.094224 -0.0315,-0.01575 -0.041049,-0.056754 -0.062816,-0.07852 -0.0037,-0.0037 -0.01047,0 -0.015703,0 C 7.658284,8.6947445 7.651917,8.6904345 7.647811,8.6842715 7.632108,8.6580985 7.616404,8.6319255 7.600699,8.6057515 7.584996,8.5952815 7.56567,8.5888415 7.553587,8.5743445 7.513627,8.5496545 7.530394,8.4963095 7.506475,8.4644168 7.499455,8.4550568 7.482092,8.4580768 7.475068,8.4487138 7.465138,8.4354708 7.465508,8.4169708 7.459365,8.4016018 7.449745,8.3775518 7.430432,8.3255578 7.412253,8.3073778 7.398906,8.2940308 7.378487,8.2893148 7.365141,8.2759708 c -0.00828,-0.00828 -0.00743,-0.02313 -0.015703,-0.031407 -0.019233,-0.019233 -0.1582647,0.01193 -0.1884477,0.015703 -0.066274,0.00828 -0.1249843,-1.617e-4 -0.1884476,0.015703 -0.053546,0.013387 -0.101856,0.052783 -0.1570397,0.062816 -0.1006877,0.018307 -0.2119627,0.0369 -0.3140793,0.047112 -0.01832,0.00183 -0.097713,-0.00243 -0.1099277,0 -0.032463,0.00649 -0.061905,0.024227 -0.094224,0.031407 -0.03926,0.00872 -0.043622,-0.00582 -0.07852,0 -0.049919,0.00832 -0.1104173,0.02639 -0.1570396,0.047112 -0.083268,0.037008 -0.1653294,0.082811 -0.2355594,0.1413357 -0.097158,0.080965 0.00984,0.023297 -0.1543233,0.1372146 z"
       id="path19" /><path
       style="opacity:1;fill:#feda00;fill-opacity:1;stroke-width:1.00031;stroke-linecap:round;stroke-linejoin:round;stroke-miterlimit:16;stroke-dasharray:none;stroke-dashoffset:4.0063;paint-order:stroke fill markers"
       d="m 5.3550526,9.0611886 c -0.041877,0.057581 -0.081644,0.1167586 -0.1256317,0.1727436 -0.056178,0.071499 -0.1474046,0.1377697 -0.1884476,0.2198557 -0.01485,0.029703 -0.089694,0.1906623 -0.109928,0.2041513 -0.00871,0.00581 -0.022697,-0.00581 -0.031407,0 -0.029463,0.019643 -0.062391,0.1301574 -0.07852,0.1570397 -0.00381,0.00635 -0.01047,0.01047 -0.015703,0.015703 -0.01047,0.015703 -0.022967,0.03023 -0.031407,0.047112 -0.075833,0.1516671 0.02023,-0.029287 -0.015703,0.07852 -0.026523,0.07957 -0.067924,0.1566591 -0.094224,0.2355601 -0.011987,0.03596 -0.00401,0.07484 -0.015703,0.109927 -0.0032,0.0096 -0.028213,0.03753 -0.031407,0.04711 -0.00497,0.0149 0.00381,0.03188 0,0.04711 -0.00859,0.03437 -0.036942,0.06372 -0.047112,0.09422 -0.010993,0.03298 0.010993,0.07695 0,0.109928 -0.00233,0.007 -0.01391,0.0085 -0.015703,0.0157 -0.025107,0.100423 -0.023573,0.314013 0,0.408303 0.00963,0.03852 0.1600533,0.222869 0.1884477,0.251264 0.019493,0.01949 0.051176,0.0041 0.062816,0.0157 0.0037,0.0037 -0.0029,0.01135 0,0.0157 0.00821,0.01232 0.02094,0.02094 0.031407,0.03141 0.02184,0.02184 0.072383,0.05668 0.094224,0.07852 0.00828,0.0083 0.00921,0.02167 0.015703,0.03141 0.020003,0.03 0.059998,0.04765 0.07852,0.07852 0.00852,0.01419 0.00652,0.03334 0.015703,0.04711 0.0029,0.0044 0.011347,-0.0029 0.015703,0 0.034412,0.02294 0.040291,0.04849 0.062816,0.07852 0.02526,0.03368 0.052115,0.03641 0.07852,0.06282 0.0037,0.0037 0,0.01047 0,0.0157 0.01047,0.0157 0.018063,0.03377 0.031407,0.04711 0.034126,0.03413 0.073607,0.06244 0.1099276,0.09422 0.00523,0.0052 0.01047,0.01047 0.015703,0.0157 0,0.0052 -0.0037,0.012 0,0.0157 0.038868,0.03887 0.093559,0.06182 0.1256316,0.109927 0.026467,0.0397 0.031253,0.03126 0.062816,0.06282 0.00965,0.0096 0.010373,0.0366 0.031407,0.04711 0.00468,0.0023 0.012003,-0.0037 0.015703,0 0.05153,0.05153 0.089806,0.121214 0.1413357,0.172744 0.0037,0.0037 0.01135,-0.0029 0.015703,0 0.036319,0.02421 0.050679,0.06638 0.07852,0.09422 0.00828,0.0083 0.022043,0.0087 0.031407,0.0157 0.034898,0.02617 0.03926,0.05235 0.07852,0.07852 0.013773,0.0092 0.033339,0.0065 0.047112,0.0157 0.01848,0.01232 0.02977,0.03324 0.047112,0.04711 0.023833,0.01907 0.054102,0.0288 0.07852,0.04711 0.023237,0.01743 0.038678,0.04672 0.062816,0.06282 0.02351,0.01567 0.1058147,0.043 0.1099277,0.04711 0.0037,0.0037 0,0.01047 0,0.0157 0.015703,0.0157 0.029343,0.03379 0.047112,0.04711 0.086549,0.06491 0.181018,0.123985 0.2669673,0.188447 0.037456,0.02809 0.086675,0.03685 0.1256317,0.06282 0.01848,0.01232 0.027697,0.03633 0.047112,0.04711 0.02894,0.01608 0.065283,0.01533 0.094224,0.03141 0.019413,0.01079 0.031407,0.03141 0.047112,0.04711 0.031407,0.02094 0.060461,0.04593 0.094224,0.06282 0.019303,0.0097 0.042978,0.0072 0.062816,0.0157 0.043509,0.01865 0.084229,0.05782 0.1256317,0.07852 0.069971,0.03499 0.147523,0.07376 0.2198557,0.109928 0.050427,0.02521 0.1066126,0.0376 0.1570396,0.06282 0.037747,0.01887 0.076165,0.03749 0.1099277,0.06282 0.011843,0.0089 0.017363,0.02673 0.031407,0.03141 0.019863,0.0066 0.042162,-0.0034 0.062816,0 0.03608,0.006 0.1819034,0.113734 0.2198557,0.141336 0.135255,0.09837 0.292563,0.193393 0.439711,0.266967 0.033778,-0.0051 0.00554,0.0256 0.015703,0.03141 0.090673,0.05181 0.213812,0.100565 0.3140793,0.125632 0.038676,0.0097 0.071252,0.03744 0.1099277,0.04711 0.038675,0.0097 0.086472,0.0027 0.1256317,0.0157 0.040592,0.01353 0.052758,0.02934 0.094224,0.04711 0.056164,0.02407 0.1149113,0.01213 0.1727436,0.03141 0.02221,0.0074 0.040105,0.02573 0.062816,0.03141 0.050619,0.01265 0.104147,0.03653 0.1570397,0.04711 0.030903,0.0062 0.08229,0.0019 0.109928,0.0157 0.00662,0.0033 0.00852,0.01391 0.015703,0.0157 0.089046,0.02226 0.1687723,0.02157 0.2512633,0.06282 0.01371,0.0069 0.1430977,0.01172 0.1570397,0.0157 0.01125,0.0032 0.01993,0.01341 0.03141,0.0157 0.06339,0.01268 0.185057,-0.02525 0.235559,0 0.08837,0.04418 0.364177,0.0157 0.486823,0.0157 0.198917,0 0.397834,0 0.596751,0 0.09047,0 0.194158,0.01475 0.282671,0 0.08905,-0.01484 0.13511,-0.03141 0.219856,-0.03141 0.057,0 0.234266,-0.04207 0.282671,-0.06282 0.01735,-0.0074 0.02959,-0.0244 0.04711,-0.03141 0.03612,-0.01445 0.08921,-0.0036 0.125632,-0.0157 0.02764,-0.0092 0.05413,-0.03898 0.07852,-0.04711 0.0099,-0.0033 0.02125,0.0025 0.03141,0 0.05686,-0.01422 0.109768,-0.06586 0.15704,-0.09422 0.03894,-0.02336 0.141027,-0.0468 0.172744,-0.07852 0.0083,-0.0083 0.0074,-0.02313 0.0157,-0.03141 0.01372,-0.01372 0.06625,-0.02528 0.07852,-0.03141 0.01324,-0.0066 0.01736,-0.02673 0.03141,-0.03141 0.0099,-0.0033 0.02243,0.0054 0.03141,0 0.01904,-0.01143 0.02783,-0.03609 0.04711,-0.04711 0.127401,-0.0728 0.01483,0.01076 0.09422,-0.0157 0.007,-0.0023 0.0091,-0.01239 0.0157,-0.0157 0.02521,-0.01261 0.05435,-0.0169 0.07852,-0.03141 0.0045,-0.0027 -0.0037,-0.012 0,-0.0157 0.018,-0.018 0.1133,-0.03309 0.141336,-0.04711 0.02166,-0.01083 0.04237,-0.03348 0.06282,-0.04711 0.02366,-0.01577 0.05836,-0.01125 0.07852,-0.03141 0.0083,-0.0083 0.0074,-0.02313 0.0157,-0.03141 0.01851,-0.01851 0.04431,-0.0286 0.06282,-0.04711 0.0047,-0.0047 0.0664,-0.105434 0.07852,-0.125632 0.04117,-0.06861 -0.01354,0.01137 0.03141,-0.07852 0.07515,-0.150298 0.204152,-0.212528 0.204152,-0.392599 0,-0.01047 0.0074,-0.02401 0,-0.03141 -0.0037,-0.0037 -0.01102,0.0023 -0.0157,0 -0.01688,-0.0084 -0.03023,-0.02297 -0.04711,-0.03141 -0.02535,-0.01268 -0.08208,0.004 -0.109927,0 -0.100852,-0.01441 -0.197214,-0.03025 -0.298376,-0.04711 -0.0575,-0.0096 -0.115805,-0.02429 -0.172743,-0.03141 -0.06696,-0.0084 -0.136915,0.0061 -0.204152,0 -0.08531,-0.0078 -0.167591,-0.02211 -0.251263,-0.03141 -0.09642,-0.01071 -0.20139,0 -0.298376,0 -0.161338,0 -0.390301,0.01992 -0.549639,0 -0.0316,-0.004 -0.06244,-0.01383 -0.09422,-0.0157 -0.09514,-0.0056 -0.202005,0.01071 -0.298376,0 -0.07358,-0.0082 -0.146333,-0.02276 -0.219855,-0.03141 -0.03639,-0.0043 -0.07351,0.004 -0.109928,0 -0.148412,-0.01649 -0.293615,-0.03847 -0.439711,-0.06282 -0.01549,-0.0026 -0.03178,0.0034 -0.04711,0 -0.105168,-0.02337 -0.211896,-0.06503 -0.314079,-0.09422 -0.0711,-0.02032 -0.152084,-0.02452 -0.219856,-0.04711 -0.05303,-0.01768 -0.109436,-0.05472 -0.1570397,-0.07852 -0.039271,-0.01964 -0.099976,-0.01954 -0.1413356,-0.04711 -0.041079,-0.02739 -0.059391,-0.05325 -0.1099277,-0.07852 -0.02169,-0.01084 -0.055151,-0.0079 -0.07852,-0.0157 -0.016267,-0.0054 -0.031533,-0.02362 -0.047112,-0.03141 C 9.522781,12.393466 9.4235037,12.33702 9.3281644,12.29616 9.2929994,12.28109 9.221894,12.26658 9.1868287,12.24905 9.1483987,12.22983 9.1201157,12.21922 9.076901,12.20194 c -0.00687,-0.0027 -0.00852,-0.01391 -0.015703,-0.0157 -0.015233,-0.0038 -0.032013,0.0043 -0.047112,0 -0.038332,-0.01095 -0.07427,-0.02928 -0.1099277,-0.04711 -0.039655,-0.01983 -0.062681,-0.05704 -0.1099276,-0.07852 -0.028987,-0.01318 -0.065744,-0.0015 -0.094224,-0.0157 -0.026487,-0.01324 -0.039126,-0.04505 -0.062816,-0.06282 -0.018727,-0.01405 -0.044088,-0.01736 -0.062816,-0.03141 -0.00419,-0.0031 0.00419,-0.01256 0,-0.0157 -0.018727,-0.01405 -0.042964,-0.019 -0.062816,-0.03141 -0.046557,-0.0078 -0.060206,-0.05584 -0.094224,-0.07852 -0.098191,-0.06546 -0.2185783,-0.127751 -0.3140793,-0.204152 -0.00409,-0.0033 0.0037,-0.012 0,-0.0157 -0.0037,-0.0037 -0.012003,0.0037 -0.015703,0 -0.00828,-0.0083 -0.00656,-0.0241 -0.015703,-0.03141 -0.01828,-0.01462 -0.044832,-0.01642 -0.062816,-0.03141 -0.084004,-0.07 0.016753,-0.02547 -0.062816,-0.07852 -0.053007,-0.03534 -0.034191,-0.03896 -0.062816,-0.06282 -0.015113,-0.01259 -0.093054,-0.04477 -0.109928,-0.07852 -0.00233,-0.0047 0.0037,-0.012 0,-0.0157 -0.011697,-0.0117 -0.053942,-0.02253 -0.062816,-0.03141 -0.0037,-0.0037 0.0037,-0.012 0,-0.0157 -0.039347,-0.03935 -0.082884,-0.07431 -0.125632,-0.109928 -0.012717,-0.0106 -0.035407,-0.004 -0.047112,-0.0157 -0.00223,-0.0022 -0.053507,-0.08492 -0.062816,-0.09422 -0.00887,-0.0089 -0.051117,-0.01971 -0.062816,-0.03141 -0.016553,-0.01655 -0.014853,-0.04626 -0.031407,-0.06282 -0.00828,-0.0083 -0.02167,-0.0092 -0.031407,-0.0157 -0.046672,-0.03111 -0.075386,-0.07978 -0.1256317,-0.109928 -0.00449,-0.0027 -0.0128,0.0044 -0.015703,0 -0.00918,-0.01377 -0.00536,-0.03419 -0.015703,-0.04711 -0.024767,-0.03096 -0.082106,-0.03963 -0.1099277,-0.06282 -0.0145,-0.01208 -0.01667,-0.03532 -0.031407,-0.04711 -0.012927,-0.01034 -0.032307,-0.0083 -0.047112,-0.0157 -0.00847,-0.0042 -0.087824,-0.07212 -0.094224,-0.07852 -0.0037,-0.0037 0.0029,-0.01135 0,-0.0157 -0.031367,-0.04705 -0.08945,-0.08221 -0.1256317,-0.125632 -0.06907,-0.08288 -0.137423,-0.167852 -0.2041517,-0.251263 -0.040574,-0.05072 -0.089876,-0.0877 -0.1256316,-0.141336 -0.01232,-0.01848 -0.028633,-0.03479 -0.047112,-0.047112 -0.00436,-0.0029 -0.013363,0.00468 -0.015703,0 -0.00468,-0.00936 0.0033,-0.021477 0,-0.031407 C 6.375746,9.908944 6.300934,9.900733 6.2816014,9.862068 6.2611384,9.821144 6.2365874,9.769942 6.2030814,9.7364363 c -0.0037,-0.0037 -0.012003,0.0037 -0.015703,0 -0.0037,-0.0037 0.00233,-0.011023 0,-0.015703 -0.03843,-0.07686 -0.018997,-0.020093 -0.062816,-0.07852 -0.0172,-0.022933 -0.065859,-0.100309 -0.07852,-0.1256317 -0.0074,-0.014807 -0.00652,-0.033339 -0.015703,-0.047112 -0.0029,-0.00436 -0.013363,0.00468 -0.015703,0 C 5.9995734,9.4393466 5.9964894,9.3546583 5.9832294,9.328134 5.9738094,9.309291 5.9455394,9.299867 5.9361174,9.281022 5.9284874,9.265759 5.9280474,9.233467 5.9204144,9.218206 5.9054244,9.188226 5.8761914,9.167575 5.8575984,9.139686 5.8406684,9.114289 5.8300254,9.084614 5.8104864,9.061166 5.8029964,9.052176 5.7873564,9.053736 5.7790794,9.045463 5.7707994,9.037183 5.7706894,9.023196 5.7633764,9.014056 5.7356294,8.979372 5.6958034,8.955366 5.6691524,8.919832 c -0.00313,-0.00419 0.0037,-0.012003 0,-0.015703 -0.00297,-0.00297 -0.247688,-0.00358 -0.2669677,0.015703 -0.0037,0.0037 0.00167,0.010737 0,0.015703 -0.014143,0.04243 -0.031407,0.083754 -0.047112,0.1256317 z"
       id="path20" /><path
       id="path21"
       style="fill:none;stroke:#611f00;stroke-width:0.40315;stroke-linecap:butt;stroke-linejoin:miter;stroke-dasharray:none;stroke-opacity:1"
       d="m 5.654855,8.715425 c 1.6096567,2.61471 3.4770295,4.561529 8.253758,4.323081 M 7.4012184,8.308739 c 0,0 0.8452758,1.848872 4.1097896,2.911745 2.361847,0.768979 2.960197,1.187529 2.088627,2.324187 -0.736144,0.960042 -3.501109,1.113792 -5.2372729,0.400452 C 7.2987256,13.508105 5.369548,12.194212 4.4754086,10.820856 M 5.5097343,8.8079295 c 0,0 -2.1419414,-1.1259258 -3.1222923,1.0472084 C 1.527751,11.760806 3.019229,13.694888 3.6200282,14.135878 4.2251667,14.580052 5.3523116,14.624471 5.152433,13.647285 4.952554,12.670099 4.2339849,11.299151 4.5861095,10.171614 4.9382342,9.0440758 5.7758047,8.4643678 6.9624468,8.3615991 8.0938215,8.2636168 8.7186697,8.4155879 9.4387239,8.8279829 10.049465,9.177771 10.926712,8.8779528 10.510297,8.0340198 10.013347,7.0268695 8.4989191,5.9357775 7.0790429,6.2573188 5.5430301,6.6051602 5.5663568,8.3891623 5.6718484,8.7429883 M 3.3892767,8.6958047 C 2.4885982,6.498912 1.9542871,1.6242904 3.489302,1.493782 4.6301112,1.3688259 5.0833342,3.1364067 5.37756,3.988289 5.6942609,4.9052442 6.3129946,6.4543303 6.3129946,6.4543303" /></g></svg>
